<?xml version="1.0" encoding="utf-8"?>
<!-- Generator: Adobe Illustrator 24.2.0, SVG Export Plug-In . SVG Version: 6.00 Build 0)  -->
<svg id="图层_1" width="120" height="120" data-name="图层 1" xmlns="http://www.w3.org/2000/svg" viewBox="410 415 250 250">
<style type="text/css">
	.st0{fill:#E6E6E6;}
	.st1{fill:url(#SVGID_1_);}
	.st2{fill:url(#SVGID_2_);}
	.st3{fill:url(#SVGID_3_);}
	.st4{fill:url(#SVGID_4_);}
	.st5{fill:url(#SVGID_5_);}
	.st6{fill:url(#SVGID_6_);}
	.st7{fill:url(#SVGID_7_);}
	.st8{fill:#191919;}
</style>
<g>
	<g>
		<linearGradient id="SVGID_1_" gradientUnits="userSpaceOnUse" x1="463.2424" y1="607.9306" x2="463.2424" y2="446.191">
			<stop  offset="0" style="stop-color:#BFBFBF;stop-opacity:0.1"/>
			<stop  offset="1" style="stop-color:#BFBFBF"/>
		</linearGradient>
		<polygon class="st1" points="495.59,586.37 430.89,607.93 430.89,446.19 495.59,446.19 		"/>
		<linearGradient id="SVGID_2_" gradientUnits="userSpaceOnUse" x1="508.5295" y1="479.6172" x2="508.5295" y2="641.3568">
			<stop  offset="0" style="stop-color:#BFBFBF;stop-opacity:0"/>
			<stop  offset="1" style="stop-color:#BFBFBF"/>
		</linearGradient>
		<polygon class="st2" points="540.88,630.57 476.18,641.36 476.18,479.62 540.88,497.95 		"/>
		<linearGradient id="SVGID_3_" gradientUnits="userSpaceOnUse" x1="560.2862" y1="419.2345" x2="560.2862" y2="590.6784">
			<stop  offset="0" style="stop-color:#BFBFBF"/>
			<stop  offset="1" style="stop-color:#BFBFBF;stop-opacity:0"/>
		</linearGradient>
		<polygon class="st3" points="592.63,590.68 527.94,579.9 527.94,436.49 592.63,419.23 		"/>
		<linearGradient id="SVGID_4_" gradientUnits="userSpaceOnUse" x1="608.808" y1="483.9303" x2="608.808" y2="660.7656">
			<stop  offset="0" style="stop-color:#BFBFBF;stop-opacity:0.1"/>
			<stop  offset="1" style="stop-color:#BFBFBF"/>
		</linearGradient>
		<polygon class="st4" points="641.16,660.77 576.46,640.28 576.46,483.93 641.16,483.93 		"/>
		<linearGradient id="SVGID_5_" gradientUnits="userSpaceOnUse" x1="439.841" y1="491.2984" x2="575.7897" y2="631.1113">
			<stop  offset="0.0129" style="stop-color:#EFAF30"/>
			<stop  offset="0.5483" style="stop-color:#443CE5"/>
			<stop  offset="0.9022" style="stop-color:#3D98E2"/>
		</linearGradient>
		<polygon class="st5" points="495.59,586.37 476.18,592.83 476.18,479.62 495.59,484.47 		"/>
		<linearGradient id="SVGID_6_" gradientUnits="userSpaceOnUse" x1="491.9011" y1="440.6771" x2="627.8499" y2="580.4901">
			<stop  offset="0.0129" style="stop-color:#EFAF30"/>
			<stop  offset="0.5483" style="stop-color:#443CE5"/>
			<stop  offset="0.9022" style="stop-color:#3D98E2"/>
		</linearGradient>
		<polygon class="st6" points="592.63,590.68 576.46,587.98 576.46,483.93 592.63,483.93 		"/>
		<linearGradient id="SVGID_7_" gradientUnits="userSpaceOnUse" x1="464.647" y1="467.178" x2="600.5958" y2="606.991">
			<stop  offset="0.0129" style="stop-color:#EFAF30"/>
			<stop  offset="0.5483" style="stop-color:#443CE5"/>
			<stop  offset="0.9022" style="stop-color:#3D98E2"/>
		</linearGradient>
		<polygon class="st7" points="540.88,582.05 527.94,579.9 527.94,494.28 540.88,497.95 		"/>
	</g>
</g>
</svg>
